<?xml version="1.0" encoding="utf-8"?>
<!-- Generator: Adobe Illustrator 26.0.3, SVG Export Plug-In . SVG Version: 6.00 Build 0)  -->
<svg version="1.1" id="Layer_1" xmlns="http://www.w3.org/2000/svg" xmlns:xlink="http://www.w3.org/1999/xlink" x="0px" y="0px"
	 viewBox="0 0 32 32" style="enable-background:new 0 0 32 32;" xml:space="preserve">
<style type="text/css">
	.st0{fill:#FFFFFF;}
	.st1{fill:#24A97A;}
	.st2{fill:#662D91;}
</style>
<g>
	<circle class="st0" cx="65" cy="16" r="8"/>
	<g>
		<path class="st1" d="M62.4,17.4c-0.8,0.3-1.7,0.3-2.1-0.2C60,17,60,16.6,60,16.5c0-0.3,0.1-0.8,0.9-1.5c0.5-0.4,1.3-1.1,2.7-1.6
			c0.7-0.3,1.5-0.5,2.5-0.7c0.6-0.1,1.1-0.1,1.6-0.1c0.5,0,0.7,0,1,0.1c0.2,0.1,0.6,0.2,0.9,0.5c0.2,0.2,0.3,0.4,0.3,0.5
			c0,0.2,0,0.5-0.1,0.8c-0.2,0.5-0.7,0.8-1.3,1.1c-0.2,0.1-0.7,0.4-1.4,0.7c-0.5,0.2-1.1,0.4-2,0.5c0.9-0.3,1.6-0.6,2-0.9
			c0.8-0.5,1-0.9,1.2-1c0.2-0.3,0.3-0.6,0.3-0.7c0-0.1,0-0.4-0.1-0.6c-0.2-0.3-0.6-0.4-1.2-0.4c-1,0-2,0.2-3.3,0.7
			c0,0-1.7,0.7-2.9,1.7c-0.3,0.3-0.7,0.7-0.6,1.1c0,0.1,0,0.2,0.1,0.3c0,0.1,0.1,0.1,0.1,0.2C61.2,17.7,62.2,17.5,62.4,17.4z"/>
		<path class="st2" d="M63.1,15c0,1.4,0,2.9-0.1,4.3L63,19.4h1.5l-0.2-0.2c0-1.6,0.1-3.3,0.1-4.9c-0.2,0.1-0.5,0.2-0.8,0.3
			C63.5,14.7,63.3,14.8,63.1,15z"/>
	</g>
</g>
<g>
	<circle class="st0" cx="16" cy="16" r="16"/>
	<g>
		<path class="st1" d="M10.7,18.8c-1.7,0.7-3.3,0.5-4.2-0.3C6,18,6,17.3,6,17c0-0.6,0.2-1.6,1.9-3.1c1-0.9,2.7-2.2,5.4-3.3
			c1.3-0.6,3-1.1,5-1.3c1.3-0.2,2.3-0.1,3.2-0.1c1,0,1.5,0.1,2,0.3c0.5,0.1,1.1,0.4,1.7,0.9c0.4,0.4,0.6,0.8,0.7,1
			c0,0.4,0.1,1-0.2,1.6c-0.4,1-1.3,1.5-2.5,2.3c-0.4,0.2-1.4,0.8-2.9,1.3c-0.9,0.3-2.3,0.7-3.9,0.9c1.8-0.5,3.1-1.3,4-1.8
			c1.6-1,2.1-1.7,2.3-2c0.4-0.6,0.5-1.1,0.6-1.5c0-0.3,0-0.8-0.3-1.2c-0.4-0.5-1.2-0.7-2.4-0.8c-2,0-4.1,0.4-6.7,1.5
			c0,0-3.5,1.4-5.7,3.4c-0.7,0.6-1.3,1.4-1.3,2.3c0,0.2,0,0.3,0.1,0.5c0.1,0.1,0.2,0.3,0.3,0.4C8.4,19.3,10.4,18.9,10.7,18.8z"/>
		<path class="st2" d="M12.3,13.9c0,2.9-0.1,5.8-0.1,8.6L12,22.8h3.1l-0.4-0.5c0.1-3.3,0.1-6.5,0.2-9.8c-0.5,0.2-1,0.4-1.5,0.7
			C13,13.5,12.6,13.7,12.3,13.9z"/>
	</g>
</g>
<g>
	<circle class="st0" cx="-50" cy="16" r="24"/>
	<g>
		<path class="st1" d="M-57.9,20.3c-2.5,1-5,0.8-6.3-0.5C-65,19-65,17.9-65,17.5c0-1,0.3-2.3,2.8-4.6c1.4-1.3,4-3.3,8.2-4.9
			c2-0.8,4.5-1.6,7.5-2c1.9-0.2,3.4-0.2,4.9-0.2c1.5,0,2.2,0.1,3,0.4c0.7,0.2,1.7,0.5,2.6,1.4c0.6,0.6,0.9,1.2,1,1.5
			c0.1,0.6,0.1,1.5-0.3,2.5c-0.7,1.5-2,2.3-3.8,3.4c-0.6,0.4-2.1,1.2-4.3,2c-1.4,0.5-3.4,1.1-5.9,1.4c2.7-0.8,4.7-1.9,6-2.7
			c2.4-1.5,3.1-2.6,3.5-3.1c0.6-0.9,0.8-1.7,1-2.2c0-0.4,0-1.2-0.4-1.8c-0.6-0.8-1.8-1.1-3.6-1.2c-2.9-0.1-6.1,0.6-10,2.2
			c0,0-5.2,2.1-8.6,5.1c-1,0.9-2,2-1.9,3.4c0,0.2,0.1,0.5,0.2,0.8c0.1,0.2,0.3,0.4,0.4,0.5C-61.4,21-58.3,20.4-57.9,20.3z"/>
		<path class="st2" d="M-55.6,12.9c-0.1,4.3-0.1,8.6-0.2,13l-0.2,0.4h4.6l-0.6-0.7c0.1-4.9,0.2-9.8,0.3-14.6c-0.7,0.3-1.5,0.6-2.3,1
			C-54.5,12.2-55.1,12.5-55.6,12.9z"/>
	</g>
</g>
<g>
	<circle class="st0" cx="16" cy="-114" r="90"/>
	<g>
		<path class="st1" d="M-13.5-98c-9.4,3.8-18.8,2.9-23.5-1.7c-3.1-3.1-3.2-7.2-3.3-8.6c-0.1-3.6,1.2-8.8,10.4-17.3
			c5.4-4.9,15.1-12.5,30.6-18.4c7.4-3.1,16.9-6.1,28-7.5c7.3-0.9,12.7-0.7,18.2-0.6c5.6,0.2,8.4,0.5,11.4,1.4c2.6,0.8,6.5,2,9.8,5.2
			c2.2,2.1,3.3,4.3,3.9,5.8c0.3,2.2,0.3,5.6-1.3,9.2c-2.4,5.6-7.3,8.5-14.3,12.7c-2.2,1.3-7.8,4.5-16.3,7.5
			c-5.2,1.8-12.7,4-22.1,5.2c10.2-3.1,17.7-7.1,22.5-10.1c8.8-5.5,11.8-9.6,13-11.5c2.1-3.2,3.1-6.2,3.6-8.3
			c0.2-1.7,0.2-4.3-1.6-6.6c-2.3-3-6.8-4.2-13.4-4.3c-11-0.3-22.8,2.4-37.5,8.3c0,0-19.4,7.8-32.2,19.3c-3.8,3.4-7.6,7.6-7.2,12.7
			c0.1,0.9,0.3,1.8,0.7,2.9c0.5,0.8,1,1.5,1.6,2C-26.6-95.3-15.3-97.6-13.5-98z"/>
		<path class="st2" d="M-5.1-125.8c-0.2,16.2-0.4,32.4-0.6,48.6l-0.7,1.4h17.3l-2.1-2.6C9.2-96.7,9.6-115,10-133.3
			c-2.6,1-5.5,2.2-8.5,3.8C-0.9-128.3-3.1-127-5.1-125.8z"/>
	</g>
</g>
<g>
	<circle class="st0" cx="16" cy="-329" r="96"/>
	<g>
		<path class="st1" d="M-15.5-311.9c-10,4.1-20.1,3.1-25-1.8c-3.3-3.4-3.5-7.7-3.5-9.2c-0.1-3.8,1.3-9.4,11.1-18.4
			c5.7-5.3,16.1-13.3,32.7-19.6c7.9-3.3,18-6.5,29.9-8c7.8-0.9,13.5-0.8,19.5-0.6c5.9,0.2,9,0.6,12.2,1.5c2.8,0.8,6.9,2.1,10.4,5.5
			c2.3,2.3,3.6,4.6,4.2,6.1c0.3,2.3,0.3,5.9-1.4,9.8c-2.6,5.9-7.8,9.1-15.3,13.5c-2.4,1.4-8.3,4.8-17.4,8
			c-5.5,1.9-13.5,4.2-23.6,5.5c10.9-3.3,18.8-7.5,24-10.7c9.4-5.9,12.6-10.2,13.9-12.3c2.2-3.4,3.3-6.7,3.8-8.9
			c0.2-1.8,0.2-4.6-1.7-7.1c-2.5-3.2-7.2-4.4-14.2-4.6c-11.8-0.3-24.3,2.6-40,8.9c0,0-20.7,8.4-34.4,20.6c-4.1,3.6-8.1,8.2-7.6,13.5
			c0.1,0.9,0.3,1.9,0.7,3.1c0.5,0.9,1.1,1.6,1.7,2.1C-29.5-309.1-17.4-311.5-15.5-311.9z"/>
		<path class="st2" d="M-6.5-341.6c-0.2,17.3-0.4,34.5-0.6,51.8l-0.7,1.5h18.4l-2.2-2.8c0.4-19.5,0.8-39,1.2-58.6
			c-2.8,1.1-5.9,2.4-9.1,4C-2-344.3-4.4-342.9-6.5-341.6z"/>
	</g>
</g>
<circle class="st0" cx="-382" cy="-169" r="256"/>
<g>
	<path class="st1" d="M-466-123.5c-26.6,10.8-53.6,8.4-66.7-4.9c-8.9-8.9-9.2-20.6-9.3-24.5c-0.2-10.2,3.5-25,29.6-49.1
		c15.3-14.1,42.8-35.6,87.1-52.4c21-8.8,48.1-17.4,79.7-21.3c20.8-2.5,36.1-2.1,51.9-1.6c15.8,0.4,23.9,1.6,32.4,4.1
		c7.5,2.2,18.4,5.6,27.8,14.7c6.3,6.1,9.5,12.3,11.1,16.4c0.7,6.2,0.8,15.8-3.7,26.2c-6.9,15.8-20.9,24.2-40.8,36
		c-6.3,3.8-22.2,12.8-46.3,21.3c-14.8,5.2-36.1,11.3-63,14.7c29-8.8,50.2-20.1,63.9-28.6c25.1-15.7,33.5-27.2,37.1-32.7
		c5.9-9.2,8.7-17.8,10.2-23.7c0.5-4.7,0.4-12.3-4.6-18.8c-6.6-8.5-19.2-11.8-38-12.3c-31.4-0.8-64.8,6.9-106.5,23.7
		c0,0-55.3,22.3-91.7,54.8c-10.9,9.7-21.5,21.8-20.4,36c0.2,2.4,0.7,5.2,1.9,8.2c1.4,2.3,3,4.2,4.6,5.7
		C-503.2-115.9-471-122.4-466-123.5z"/>
	<path class="st2" d="M-442-202.5c-0.6,46.1-1.1,92.1-1.7,138.2l-1.9,4h49.2l-6-7.5c1.1-52,2.2-104.1,3.3-156.1
		c-7.5,2.8-15.6,6.4-24.1,10.7C-430.1-209.7-436.4-206.1-442-202.5z"/>
</g>
</svg>
